<!DOCTYPE svg PUBLIC "-//W3C//DTD SVG 1.1//EN" "http://www.w3.org/Graphics/SVG/1.1/DTD/svg11.dtd">
<!-- Uploaded to: SVG Repo, www.svgrepo.com, Transformed by: SVG Repo Mixer Tools -->
<svg fill="#ffffff" version="1.1" id="Brush" xmlns="http://www.w3.org/2000/svg" xmlns:xlink="http://www.w3.org/1999/xlink" width="800px" height="800px" viewBox="0 0 256 256" enable-background="new 0 0 256 256" xml:space="preserve">
<g id="SVGRepo_bgCarrier" stroke-width="0"/>
<g id="SVGRepo_tracerCarrier" stroke-linecap="round" stroke-linejoin="round"/>
<g id="SVGRepo_iconCarrier"> <path d="M202.21,16.845l-29.162,61.92c-17.956,38.128-40.373,73.991-66.779,106.837l-0.764,0.95l-17.359-10.12l0,0 c15.694-40.012,36.17-77.977,60.984-113.07l38.785-54.851c2.485-3.515,7.245-4.548,10.964-2.38l0,0 C202.598,8.299,204.044,12.95,202.21,16.845z M96.157,228.953c6.741-11.563,8.412-24.315,5.492-34.518l-17.359-10.12 c-7.74,1.915-18.599,7.756-25.184,19.051c-2.067,3.546-5.805,11.391-4.375,22.69c1.343,10.619,0.524,18.54-1.734,24.036 C64.602,253.686,85.869,246.601,96.157,228.953z"/> </g>
</svg>